<svg width="48" height="48" viewBox="0 0 48 48" fill="none" xmlns="http://www.w3.org/2000/svg">
<path d="M2.922 35.8851C4.41477 35.3433 3.93205 35.5687 4.41477 35.3433C5.07955 35.0331 5.23295 34.3683 5.59091 33.5016L8.54966 25.7932C6.8775 25.4725 5.17261 25.959 3.56693 26.4129L1.5 27.2536C3.38693 25.0164 6.71386 23.8106 9.5325 23.4259C9.5325 23.4259 9.5325 23.4259 9.6225 23.1952L15.72 7.5L18.328 7.50003L27.8097 32.1755C28.6759 33.9783 29.3182 35.858 30.6876 35.5817L21.1016 10.5075C20.8091 9.85421 20.458 8.86332 19.7045 8.36672C19.381 8.15342 18.8864 8.15004 18.8864 8.15004V7.50004H27.9886V8.15004C27.9886 8.15004 27.4444 8.17319 27.1705 8.36672C26.8636 8.58339 26.6591 8.97206 26.9393 9.82501C29.128 16.4868 31.966 23.1921 34.3295 29.7943L41.6011 10.5314C42.0123 9.26815 41.4897 8.14679 40.1591 8.15004V7.5H46.5V8.15004C46.5 8.15004 45.2216 8.15004 43.9943 10.3168C43.9943 10.3168 43.9943 10.5552 34.3295 35.5817C32.6141 40.0236 28.1676 39.1894 26.1477 38.2685C20.0114 35.5817 17.2234 28.6144 10.7475 26.3295C9.93239 28.4617 8.88511 30.688 8.23773 32.8797C7.74171 34.559 7.80409 35.8243 9.78409 35.8851V36.5351L2.922 36.4267V35.8851ZM22.0353 28.9307L15.7026 13.02L11.8193 23.3014C15.8959 23.6958 18.9119 26.465 22.0353 28.9307Z" fill="#C29E75"/>
</svg>
