<svg width="1000" height="174" viewBox="0 0 1000 174" fill="none" xmlns="http://www.w3.org/2000/svg">
<path d="M56.82 11.2C68.1 11.2 77.94 13.42 86.34 17.86C94.74 22.3 101.22 28.9 105.78 37.66C110.46 46.3 112.8 56.8 112.8 69.16V139H89.4V106.6H23.88V139H0.840001V69.16C0.840001 56.8 3.12 46.3 7.68 37.66C12.36 28.9 18.9 22.3 27.3 17.86C35.7 13.42 45.54 11.2 56.82 11.2ZM89.4 86.98V67C89.4 55.36 86.52 46.6 80.76 40.72C75 34.72 66.96 31.72 56.64 31.72C46.32 31.72 38.28 34.72 32.52 40.72C26.76 46.6 23.88 55.36 23.88 67V86.98H89.4ZM237.333 42.88V173.92H214.833V127.3C207.273 135.94 197.013 140.26 184.053 140.26C174.693 140.26 166.293 138.22 158.853 134.14C151.533 130.06 145.773 124.3 141.573 116.86C137.493 109.42 135.453 100.78 135.453 90.94C135.453 81.22 137.553 72.64 141.753 65.2C145.953 57.76 151.713 52 159.033 47.92C166.353 43.84 174.693 41.8 184.053 41.8C190.653 41.8 196.653 42.94 202.053 45.22C207.573 47.5 212.193 50.92 215.913 55.48V42.88H237.333ZM186.573 121C194.853 121 201.693 118.24 207.093 112.72C212.493 107.2 215.193 99.94 215.193 90.94C215.193 81.94 212.493 74.68 207.093 69.16C201.693 63.64 194.853 60.88 186.573 60.88C178.293 60.88 171.453 63.64 166.053 69.16C160.773 74.68 158.133 81.94 158.133 90.94C158.133 99.94 160.773 107.2 166.053 112.72C171.453 118.24 178.293 121 186.573 121ZM359.832 42.88V139H338.412V126.76C334.812 131.08 330.312 134.44 324.912 136.84C319.512 139.12 313.692 140.26 307.452 140.26C294.612 140.26 284.472 136.72 277.032 129.64C269.712 122.44 266.052 111.82 266.052 97.78V42.88H288.552V94.72C288.552 103.36 290.472 109.84 294.312 114.16C298.272 118.36 303.852 120.46 311.052 120.46C319.092 120.46 325.452 118 330.132 113.08C334.932 108.04 337.332 100.84 337.332 91.48V42.88H359.832ZM483.251 42.88V139H461.831V126.58C458.111 131.14 453.491 134.56 447.971 136.84C442.571 139.12 436.571 140.26 429.971 140.26C420.611 140.26 412.211 138.22 404.771 134.14C397.451 130.06 391.691 124.3 387.491 116.86C383.411 109.42 381.371 100.78 381.371 90.94C381.371 81.1 383.411 72.52 387.491 65.2C391.691 57.76 397.451 52 404.771 47.92C412.211 43.84 420.611 41.8 429.971 41.8C436.211 41.8 441.911 42.88 447.071 45.04C452.351 47.2 456.911 50.38 460.751 54.58V42.88H483.251ZM432.491 121C440.771 121 447.611 118.24 453.011 112.72C458.411 107.2 461.111 99.94 461.111 90.94C461.111 81.94 458.411 74.68 453.011 69.16C447.611 63.64 440.771 60.88 432.491 60.88C424.211 60.88 417.371 63.64 411.971 69.16C406.691 74.68 404.051 81.94 404.051 90.94C404.051 99.94 406.691 107.2 411.971 112.72C417.371 118.24 424.211 121 432.491 121ZM679.796 13L624.896 139H601.856L546.776 13H572.156L614.096 110.2L656.396 13H679.796ZM691.811 42.88H714.311V139H691.811V42.88ZM703.151 27.04C699.071 27.04 695.651 25.78 692.891 23.26C690.131 20.62 688.751 17.38 688.751 13.54C688.751 9.69999 690.131 6.51999 692.891 3.99999C695.651 1.35999 699.071 0.0399973 703.151 0.0399973C707.231 0.0399973 710.651 1.3 713.411 3.81999C716.171 6.22 717.551 9.28 717.551 13C717.551 16.96 716.171 20.32 713.411 23.08C710.771 25.72 707.351 27.04 703.151 27.04ZM773.542 140.26C765.742 140.26 758.122 139.24 750.682 137.2C743.242 135.16 737.302 132.58 732.862 129.46L741.502 112.36C745.822 115.24 750.982 117.58 756.982 119.38C763.102 121.06 769.102 121.9 774.982 121.9C788.422 121.9 795.142 118.36 795.142 111.28C795.142 107.92 793.402 105.58 789.922 104.26C786.562 102.94 781.102 101.68 773.542 100.48C765.622 99.28 759.142 97.9 754.102 96.34C749.182 94.78 744.862 92.08 741.142 88.24C737.542 84.28 735.742 78.82 735.742 71.86C735.742 62.74 739.522 55.48 747.082 50.08C754.762 44.56 765.082 41.8 778.042 41.8C784.642 41.8 791.242 42.58 797.842 44.14C804.442 45.58 809.842 47.56 814.042 50.08L805.402 67.18C797.242 62.38 788.062 59.98 777.862 59.98C771.262 59.98 766.222 61 762.742 63.04C759.382 64.96 757.702 67.54 757.702 70.78C757.702 74.38 759.502 76.96 763.102 78.52C766.822 79.96 772.522 81.34 780.202 82.66C787.882 83.86 794.182 85.24 799.102 86.8C804.022 88.36 808.222 91 811.702 94.72C815.302 98.44 817.102 103.72 817.102 110.56C817.102 119.56 813.202 126.76 805.402 132.16C797.602 137.56 786.982 140.26 773.542 140.26ZM890.479 133.78C887.839 135.94 884.599 137.56 880.759 138.64C877.039 139.72 873.079 140.26 868.879 140.26C858.319 140.26 850.159 137.5 844.399 131.98C838.639 126.46 835.759 118.42 835.759 107.86V21.64H858.259V43.6H883.999V61.6H858.259V107.32C858.259 112 859.399 115.6 861.679 118.12C864.079 120.52 867.379 121.72 871.579 121.72C876.619 121.72 880.819 120.4 884.179 117.76L890.479 133.78ZM999.872 42.88V139H978.452V126.58C974.732 131.14 970.112 134.56 964.592 136.84C959.192 139.12 953.192 140.26 946.592 140.26C937.232 140.26 928.832 138.22 921.392 134.14C914.072 130.06 908.312 124.3 904.112 116.86C900.032 109.42 897.992 100.78 897.992 90.94C897.992 81.1 900.032 72.52 904.112 65.2C908.312 57.76 914.072 52 921.392 47.92C928.832 43.84 937.232 41.8 946.592 41.8C952.832 41.8 958.532 42.88 963.692 45.04C968.972 47.2 973.532 50.38 977.372 54.58V42.88H999.872ZM949.112 121C957.392 121 964.232 118.24 969.632 112.72C975.032 107.2 977.732 99.94 977.732 90.94C977.732 81.94 975.032 74.68 969.632 69.16C964.232 63.64 957.392 60.88 949.112 60.88C940.832 60.88 933.992 63.64 928.592 69.16C923.312 74.68 920.672 81.94 920.672 90.94C920.672 99.94 923.312 107.2 928.592 112.72C933.992 118.24 940.832 121 949.112 121Z" fill="white"/>
</svg>
