<svg width="650" height="112" viewBox="0 0 650 112" fill="none" xmlns="http://www.w3.org/2000/svg">
<path d="M5.3404 100.757C10.9466 98.834 9.13368 99.634 10.9466 98.834C13.4432 97.7328 14.0193 95.3732 15.3636 92.2965L26.4754 64.9344C20.1955 63.7963 13.7927 65.523 7.76248 67.1342L0 70.1185C7.08648 62.1771 19.581 57.897 30.1665 56.5314C30.1665 56.5314 30.1665 56.5314 30.5045 55.7126L53.404 0L63.1983 0.000102691L98.8074 87.5896C102.061 93.9887 104.473 100.661 109.616 99.6801L73.6149 10.6756C72.5164 8.35662 71.1978 4.83932 68.3682 3.07655C67.1529 2.31942 65.2955 2.30741 65.2955 2.30741V0.00014065H99.4795V2.30741C99.4795 2.30741 97.4358 2.38959 96.4068 3.07655C95.2545 3.84567 94.4864 5.22529 95.5388 8.25299C103.758 31.9001 114.417 55.7015 123.293 79.1371L150.602 10.7604C152.146 6.2763 150.183 2.29588 145.186 2.30741V0H169V2.30741C169 2.30741 164.199 2.30741 159.59 9.99879C159.59 9.99879 159.59 10.8448 123.293 99.6801C116.851 115.447 100.152 112.486 92.5659 109.217C69.5205 99.6801 59.0501 74.9488 34.7295 66.8383C31.6683 74.4067 27.7352 82.3094 25.3039 90.0891C23.4411 96.0502 23.6754 100.542 31.1114 100.757V103.065L5.3404 102.68V100.757ZM77.1216 76.0716L53.3387 19.5939L38.7548 56.0895C54.0646 57.4893 65.3915 67.319 77.1216 76.0716Z" fill="#4F3621"/>
<path d="M265.527 85.331C270.366 90.1651 278.205 97.7208 285.446 94.0455C285.06 101.21 275.203 100.269 270.285 98.3126C263.803 95.7337 260.763 90.8063 255.776 87.9099C252.756 86.1531 247.426 85.9728 243.733 84.3841C216.647 72.717 223.447 28.8325 252.762 26.1604C290.166 22.7525 299.918 74.6732 265.515 85.331H265.527ZM252.289 30.6578C231.965 34.1083 231.374 84.3408 257.719 82.8454C282.925 81.4191 282.053 25.6057 252.289 30.6578Z" fill="#4F3621"/>
<path d="M543.267 41.7216C540.272 42.1886 540.44 38.7628 539.182 36.7757C537.42 33.9911 535.297 31.823 532.071 30.8081C521.311 27.4317 510.788 36.57 521.18 45.4401C530.122 53.0774 546.872 55.1392 546.872 70.0579C546.872 89.0695 520.956 88.9577 508.384 82.6849C508.384 79.2592 508.073 68.7688 509.344 67.8842C509.941 67.4679 510.576 67.9775 510.95 68.7688C513.428 74.0384 515.614 78.3363 521.342 80.7911C534.524 86.4405 544.525 74.0761 534.232 65.4048C524.605 57.2944 506.629 56.2604 509.312 39.1921C511.791 23.4204 531.99 24.4353 543.279 28.9451V41.7154L543.267 41.7216Z" fill="#4F3621"/>
<path d="M598.067 27.3945V39.8529L594.979 39.8276C595.247 36.707 592.512 31.1322 589.038 31.1322L579.997 31.1384C579.997 31.1384 578.88 77.4665 579.997 80.8169C580.62 82.686 584.356 82.686 584.356 82.686V85.8005H565.053L565.09 82.8652C565.09 82.8652 568.992 82.686 569.424 80.66C569.856 78.6345 569.424 31.1384 569.424 31.1384H560.395C557.469 31.1384 554.324 37.0436 555.096 39.8591H551.989V27.4007H598.067V27.3945Z" fill="#4F3621"/>
<path d="M226.909 85.8005H205.182V83.3087C210.769 82.5965 211.567 81.8849 210.414 78.414C209.261 74.9438 207.488 70.1381 205.537 64.7098H186.648C185.229 68.7143 183.898 72.452 182.746 76.1897C180.795 81.7959 181.593 82.6854 188.244 83.3087V85.8005H169V83.3087C174.587 82.5075 175.828 81.9738 178.932 74.1426L196.491 26.623H201.69C207.189 41.929 212.827 58.6588 218.503 74.1426C221.341 81.7959 221.145 82.7744 226.909 83.3087V85.8005ZM203.87 60.2605L196.491 38.1913H196.314C193.476 45.8446 190.904 52.9636 188.244 60.2605H203.87Z" fill="#4F3621"/>
<path d="M400.678 85.8005H378.95V83.3087C384.537 82.5965 385.336 81.8849 384.183 78.414C383.03 74.9438 381.256 70.1381 379.305 64.7098H360.416C358.997 68.7143 357.667 72.452 356.514 76.1897C354.563 81.7959 355.361 82.6854 362.012 83.3087V85.8005H342.769V83.3087C348.355 82.5075 349.597 81.9738 352.701 74.1426L370.26 26.623H375.459C380.957 41.929 386.596 58.6588 392.271 74.1426C395.109 81.7959 394.913 82.7744 400.678 83.3087V85.8005ZM377.638 60.2605L370.26 38.1913H370.082C367.245 45.8446 364.673 52.9636 362.012 60.2605H377.638Z" fill="#4F3621"/>
<path d="M649.789 85.8005H628.063V83.3087C633.649 82.5965 634.448 81.8849 633.295 78.414C632.142 74.9438 630.368 70.1381 628.417 64.7098H609.528C608.11 68.7143 606.779 72.452 605.626 76.1897C603.675 81.7959 604.473 82.6854 611.125 83.3087V85.8005H591.881V83.3087C597.468 82.5075 598.709 81.9738 601.813 74.1426L619.372 26.623H624.571C630.069 41.929 635.707 58.6588 641.383 74.1426C644.221 81.7959 644.025 82.7744 649.789 83.3087V85.8005ZM626.751 60.2605L619.372 38.1913H619.194C616.357 45.8446 613.785 52.9636 611.125 60.2605H626.751Z" fill="#4F3621"/>
<path d="M347.734 27.2461V29.741C342.373 30.098 340.318 31.3458 339.872 34.9995C339.604 37.406 339.425 41.2382 339.425 49.4375V56.7455C339.425 67.2619 337.817 74.8373 332.635 80.2737C328.525 84.5513 322.539 86.4229 316.643 86.4229C311.46 86.4229 306.279 85.1751 302.347 82.1453C296.986 78.0457 294.485 71.3615 294.485 60.9342V38.7427C294.485 30.7219 293.77 30.3649 286.712 29.741V27.2461H309.852V29.741C302.794 30.187 302.079 30.7219 302.079 38.7427V58.9736C302.079 73.3221 307.797 81.5215 318.876 81.5215C331.741 81.5215 335.762 70.8266 335.762 56.1217V49.4375C335.762 41.2382 335.494 37.4949 335.137 34.732C334.601 31.2562 332.724 30.187 326.47 29.741V27.2461H347.734Z" fill="#4F3621"/>
<path d="M502.163 85.8003H478.501V83.2776C485.823 82.7371 486.537 82.1966 486.537 74.5396V38.5061C486.537 30.8491 485.823 30.3087 478.501 29.7682V27.2461H502.163V29.7682C494.841 30.3087 494.126 30.8491 494.126 38.5061V74.5396C494.126 82.2868 494.841 82.7371 502.163 83.2776V85.8003Z" fill="#4F3621"/>
<path d="M477.219 27.2461V29.7527C471.143 30.4686 469.981 31.2747 466.586 39.332C464.173 45.1513 454.702 67.8913 448.001 86.4229H445.231C439.244 70.0397 431.917 50.702 426.735 37.7204C424.144 31.006 422.714 30.2895 417.442 29.8423V27.2461H439.334V29.7527C432.989 30.4686 435.004 34.5189 436.434 38.4586C438.757 44.8147 443.212 57.4096 449.199 72.7186C453.666 61.5278 460.332 45.42 463.19 36.5567C464.888 31.3643 464.353 30.6478 457.115 29.7527V27.2461H477.219Z" fill="#4F3621"/>
</svg>
