<svg width="70" height="48" viewBox="0 0 70 48" fill="none" xmlns="http://www.w3.org/2000/svg">
<rect width="70" height="48" rx="4" fill="#FFFCED"/>
<path d="M13.2617 37.3881V31.1084H15.1915C16.6003 31.1084 17.5073 31.6372 17.5073 32.7314C17.5177 32.99 17.4592 33.2466 17.3378 33.4752C17.2164 33.7037 17.0365 33.8959 16.8165 34.0321C17.1037 34.1592 17.3458 34.3703 17.5108 34.6376C17.6758 34.9049 17.756 35.2159 17.7409 35.5296C17.7409 36.7937 16.8165 37.3861 15.3807 37.3861L13.2617 37.3881ZM14.5084 33.7214H15.4328C15.9982 33.7214 16.2395 33.4435 16.2395 32.9321C16.2395 32.384 15.7994 32.2046 15.207 32.2046H14.5065L14.5084 33.7214ZM14.5084 36.2958H15.2803C16.0349 36.2958 16.473 36.1028 16.473 35.5238C16.473 34.9449 16.087 34.6979 15.3865 34.6979H14.5065L14.5084 36.2958ZM20.1647 37.4981C18.9354 37.4981 18.3159 36.8979 18.3159 36.0893C18.3159 35.2016 19.0435 34.6805 20.1184 34.6709C20.3861 34.6756 20.6531 34.6995 20.9174 34.7423V34.5261C20.9174 33.9781 20.6028 33.7195 20.0026 33.7195C19.5974 33.7146 19.1951 33.788 18.8177 33.9356L18.5938 32.9707C19.0885 32.7904 19.6112 32.6996 20.1377 32.7024C21.4558 32.7024 22.1119 33.403 22.1119 34.613V37.1005C21.4974 37.3739 20.8293 37.5058 20.157 37.4865L20.1647 37.4981ZM20.9174 36.4849V35.52C20.7082 35.4736 20.4947 35.4497 20.2805 35.4486C19.8675 35.4486 19.5452 35.6107 19.5452 36.0275C19.5452 36.4135 19.8135 36.6065 20.2902 36.6065C20.5061 36.6135 20.7207 36.5705 20.9174 36.481V36.4849ZM22.9919 37.3919V33.0903C23.6374 32.8343 24.3257 32.7033 25.0202 32.7044C26.3305 32.7044 27.0832 33.3509 27.0832 34.5435V37.3958H25.8442V34.6246C25.8442 34.0051 25.5567 33.7175 25.0105 33.7175C24.7388 33.7139 24.4695 33.7692 24.2212 33.8796V37.3881L22.9919 37.3919ZM31.4098 32.9688L31.1763 33.9472C30.856 33.8085 30.5121 33.7326 30.1632 33.7233C29.4356 33.7233 29.0419 34.2347 29.0419 35.0742C29.0419 35.9986 29.4549 36.4733 30.2268 36.4733C30.5712 36.4638 30.91 36.3844 31.2226 36.2398L31.4156 37.2356C31.0097 37.4164 30.5688 37.5053 30.1246 37.4961C28.6347 37.4961 27.774 36.5718 27.774 35.1089C27.774 33.6461 28.627 32.6947 30.0532 32.6947C30.5169 32.6927 30.9763 32.7839 31.404 32.963L31.4098 32.9688ZM34.0846 37.5C32.7028 37.5 31.8421 36.5351 31.8421 35.0954C31.8421 33.6558 32.7028 32.7005 34.0846 32.7005C35.4663 32.7005 36.3193 33.6654 36.3193 35.0954C36.3193 36.5254 35.476 37.4961 34.0846 37.4961V37.5ZM34.0846 36.4772C34.7214 36.4772 35.0495 35.9484 35.0495 35.0954C35.0495 34.2424 34.7176 33.7233 34.0846 33.7233C33.4516 33.7233 33.1062 34.2521 33.1062 35.0954C33.1062 35.9388 33.4555 36.4733 34.0846 36.4733V36.4772ZM37.0353 37.3919V33.0903C37.6808 32.8343 38.3691 32.7033 39.0635 32.7044C40.3739 32.7044 41.1265 33.3509 41.1265 34.5435V37.3958H39.8876V34.6246C39.8876 34.0051 39.6 33.7175 39.0539 33.7175C38.7822 33.7139 38.5129 33.7692 38.2646 33.8796V37.3881L37.0353 37.3919ZM43.919 37.5C42.8518 37.5 42.3037 36.921 42.3037 35.7323V33.8024H41.6939V32.8163H42.3037V31.8205L43.5427 31.7568V32.8163H44.5385V33.8024H43.5427V35.7226C43.5427 36.2437 43.7588 36.4946 44.1621 36.4946C44.3219 36.494 44.4811 36.4759 44.6369 36.4405L44.7006 37.4363C44.4432 37.4861 44.1809 37.5062 43.919 37.4961V37.5ZM47.0434 37.5C45.8141 37.5 45.1946 36.8998 45.1946 36.0912C45.1946 35.2035 45.9222 34.6824 46.9971 34.6728C47.2647 34.6775 47.5317 34.7014 47.796 34.7442V34.5281C47.796 33.98 47.4815 33.7214 46.8813 33.7214C46.4761 33.7165 46.0737 33.7899 45.6964 33.9375L45.4725 32.9726C45.9671 32.7924 46.4899 32.7015 47.0164 32.7044C48.3344 32.7044 48.9906 33.4049 48.9906 34.6149V37.1005C48.3792 37.3761 47.7138 37.5113 47.0434 37.4961V37.5ZM47.796 36.4868V35.5219C47.5869 35.4755 47.3734 35.4516 47.1592 35.4505C46.7462 35.4505 46.4239 35.6126 46.4239 36.0295C46.4239 36.4154 46.6922 36.6084 47.1688 36.6084C47.3849 36.6148 47.5995 36.5712 47.796 36.481V36.4868ZM53.2343 32.9707L53.0008 33.9491C52.6805 33.8105 52.3365 33.7345 51.9876 33.7252C51.2601 33.7252 50.8664 34.2367 50.8664 35.0761C50.8664 36.0005 51.2794 36.4753 52.0513 36.4753C52.3956 36.4658 52.7344 36.3863 53.0471 36.2418L53.2401 37.2375C52.8341 37.4183 52.3933 37.5073 51.949 37.4981C50.4592 37.4981 49.5985 36.5737 49.5985 35.1109C49.5985 33.6481 50.4515 32.6967 51.8776 32.6967C52.3433 32.6938 52.8047 32.785 53.2343 32.9649V32.9707ZM55.9553 37.5019C54.8881 37.5019 54.3401 36.923 54.3401 35.7342V33.8044H53.7302V32.8182H54.3401V31.8224L55.579 31.7588V32.8182H56.5748V33.8044H55.579V35.7246C55.579 36.2456 55.7952 36.4965 56.1985 36.4965C56.3582 36.496 56.5175 36.4778 56.6732 36.4425L56.7369 37.4382C56.4801 37.4873 56.2185 37.5067 55.9573 37.4961L55.9553 37.5019Z" fill="#1E3764"/>
<path d="M21.8977 27.9688C28.4495 27.9688 31.7244 23.6016 34.9993 19.2344H13.2617V27.9688H21.8977Z" fill="url(#paint0_linear_2711_48)"/>
<path d="M48.1016 10.498C41.5498 10.498 38.2749 14.8653 35 19.2325H56.7376V10.498H48.1016Z" fill="url(#paint1_linear_2711_48)"/>
<defs>
<linearGradient id="paint0_linear_2711_48" x1="17.6579" y1="24.003" x2="33.5597" y2="18.0977" gradientUnits="userSpaceOnUse">
<stop stop-color="#005AB9"/>
<stop offset="1" stop-color="#1E3764"/>
</linearGradient>
<linearGradient id="paint1_linear_2711_48" x1="36.3161" y1="19.9909" x2="53.2002" y2="14.2303" gradientUnits="userSpaceOnUse">
<stop stop-color="#FBA900"/>
<stop offset="1" stop-color="#FFD800"/>
<stop offset="1" stop-color="#FFD800"/>
</linearGradient>
</defs>
</svg>
