<svg width="70" height="48" viewBox="0 0 70 48" fill="none" xmlns="http://www.w3.org/2000/svg">
<rect width="70" height="48" rx="4" fill="#F1F6FF"/>
<path fill-rule="evenodd" clip-rule="evenodd" d="M33.0593 31.5169V25.475H36.1776C37.4555 25.475 38.534 25.0468 39.4132 24.2024L39.6242 23.9883C41.2303 22.24 41.1248 19.5163 39.4132 17.8988C38.5574 17.0425 37.3851 16.5786 36.1776 16.6024H31.1719V31.5169H33.0593ZM33.0595 23.6434V18.434H36.2253C36.9053 18.434 37.5502 18.6957 38.0309 19.1714C39.051 20.1705 39.0744 21.8356 38.0895 22.8703C37.6088 23.3817 36.9288 23.6672 36.2253 23.6434H33.0595ZM48.4283 22.1091C47.6194 21.3599 46.5175 20.9793 45.1224 20.9793C43.3288 20.9793 41.9806 21.6453 41.0897 22.9655L42.7544 24.024C43.364 23.1201 44.1963 22.6681 45.2514 22.6681C45.9196 22.6681 46.5644 22.9179 47.0685 23.3699C47.5608 23.798 47.8422 24.4165 47.8422 25.0706V25.5107C47.1154 25.1063 46.201 24.8922 45.0755 24.8922C43.7625 24.8922 42.7075 25.2015 41.922 25.8318C41.1366 26.4622 40.738 27.2947 40.738 28.3532C40.7145 29.3166 41.1248 30.2324 41.8517 30.8509C42.5902 31.5169 43.5281 31.8499 44.6301 31.8499C45.9313 31.8499 46.963 31.2672 47.7484 30.1016H47.8305V31.5169H49.6358V25.2252C49.6358 23.9051 49.2372 22.8584 48.4283 22.1091ZM43.3057 29.6377C42.9187 29.3523 42.6842 28.8884 42.6842 28.3889C42.6842 27.8299 42.9422 27.3661 43.4464 26.9974C43.9623 26.6287 44.6071 26.4384 45.3693 26.4384C46.4245 26.4265 47.2453 26.6644 47.8315 27.1401C47.8315 27.9489 47.5149 28.6506 46.8935 29.2453C46.3307 29.8161 45.5686 30.1373 44.7713 30.1373C44.2437 30.1492 43.7278 29.9708 43.3057 29.6377ZM53.6921 36.0008L59.9991 21.3123H57.9476L55.0285 28.6387H54.9933L52.0039 21.3123H49.9524L54.0906 30.8628L51.746 36.0008H53.6921Z" fill="#3C4043"/>
<path d="M26.544 24.1661C26.544 23.5834 26.4971 23.0006 26.4034 22.4297H18.4434V25.7242H23.0037C22.8161 26.7827 22.2065 27.7342 21.3155 28.3289V30.4697H24.0353C25.6296 28.983 26.544 26.7827 26.544 24.1661Z" fill="#4285F4"/>
<path d="M18.4442 32.5392C20.7185 32.5392 22.6411 31.778 24.0361 30.4697L21.3164 28.3289C20.5544 28.8522 19.5814 29.1496 18.4442 29.1496C16.2403 29.1496 14.3763 27.6391 13.7081 25.6172H10.9062V27.8294C12.3365 30.7195 15.2555 32.5392 18.4442 32.5392Z" fill="#34A853"/>
<path d="M13.708 25.6177C13.3563 24.5592 13.3563 23.4055 13.708 22.3351V20.1348H10.9058C9.69808 22.5492 9.69808 25.4036 10.9058 27.818L13.708 25.6177Z" fill="#FBBC04"/>
<path d="M18.4442 18.8023C19.6517 18.7785 20.8123 19.2423 21.6798 20.0868L24.0948 17.6367C22.559 16.1857 20.5427 15.3888 18.4442 15.4126C15.2555 15.4126 12.3365 17.2442 10.9062 20.1344L13.7081 22.3466C14.3763 20.3128 16.2403 18.8023 18.4442 18.8023Z" fill="#EA4335"/>
</svg>
