<svg width="70" height="48" viewBox="0 0 70 48" fill="none" xmlns="http://www.w3.org/2000/svg">
<rect width="70" height="48" rx="4" fill="#FFF5FB"/>
<path fill-rule="evenodd" clip-rule="evenodd" d="M19.0273 9.91211H35.6847C47.0038 9.91211 51.3535 16.098 51.3535 23.917C51.3535 33.27 45.2738 37.9713 35.6847 37.9713H19.0273V9.91211ZM20.6089 11.5947V36.3877H35.6846C44.7794 36.3877 49.7222 32.1318 49.7222 23.9665C49.7222 15.5536 44.3839 11.5947 35.6846 11.5947H20.6089ZM25.0576 24.4118C26.7228 24.4118 28.0727 23.0603 28.0727 21.3931C28.0727 19.7259 26.7228 18.3744 25.0576 18.3744C23.3924 18.3744 22.0424 19.7259 22.0424 21.3931C22.0424 23.0603 23.3924 24.4118 25.0576 24.4118ZM22.6357 25.6985H27.4797V34.3093H22.6357V25.6985Z" fill="black"/>
<path fill-rule="evenodd" clip-rule="evenodd" d="M44.2366 18.6216H45.6206V22.7785H47.6471C47.1034 15.207 41.1226 13.5244 35.6855 13.5244H29.9023V18.6216H30.7426C32.3243 18.6216 33.2635 19.6608 33.2635 21.3929C33.2635 23.1249 32.3243 24.1642 30.7921 24.1642H29.9023V34.309H35.6855C44.5331 34.309 47.5483 30.2016 47.6965 24.1642H44.2366V18.6216ZM37.5637 22.7785V24.1642H34.1037V18.6216H37.4649V20.0072H35.4877V20.6506H37.366V22.0362H35.5372V22.7785H37.5637ZM39.8373 18.6216H41.8144L43.495 24.1642H42.0616L41.765 23.1249H39.9362L39.6396 24.1642H38.1567L39.8373 18.6216ZM40.3471 21.6898H40.3317V21.7393L40.3471 21.6898ZM40.3471 21.6898H41.3202L40.8754 20.1557H40.8259L40.3471 21.6898ZM29.9023 22.7785V20.0072H30.7426C31.2863 20.0072 31.8795 20.1557 31.8795 21.3929C31.8795 22.6301 31.3358 22.7785 30.7426 22.7785H29.9023Z" fill="#D50072"/>
</svg>
