<svg width="70" height="48" viewBox="0 0 70 48" fill="none" xmlns="http://www.w3.org/2000/svg">
<rect width="70" height="48" rx="4" fill="#F5F4FF"/>
<path d="M40.1896 24.2542C40.1896 31.879 34.0794 38.0602 26.5421 38.0602C19.0047 38.0602 12.8945 31.879 12.8945 24.2542C12.8945 16.6294 19.0047 10.4482 26.5421 10.4482C34.0794 10.4482 40.1896 16.6294 40.1896 24.2542Z" fill="#ED0006"/>
<path d="M57.8947 24.2542C57.8947 31.879 51.7845 38.0602 44.2472 38.0602C36.7098 38.0602 30.5996 31.879 30.5996 24.2542C30.5996 16.6294 36.7098 10.4482 44.2472 10.4482C51.7845 10.4482 57.8947 16.6294 57.8947 24.2542Z" fill="#0099DF"/>
<path fill-rule="evenodd" clip-rule="evenodd" d="M35.3946 13.7461C38.329 16.2784 40.1897 20.0463 40.1897 24.254C40.1897 28.4616 38.329 32.2295 35.3946 34.7618C32.4603 32.2295 30.5996 28.4616 30.5996 24.254C30.5996 20.0463 32.4603 16.2784 35.3946 13.7461Z" fill="#6C6BBD"/>
</svg>
