<svg width="70" height="48" viewBox="0 0 70 48" fill="none" xmlns="http://www.w3.org/2000/svg">
<rect width="70" height="48" rx="4" fill="#F3FBFF"/>
<path fill-rule="evenodd" clip-rule="evenodd" d="M34.8751 43.038H49.7236C53.1119 43.038 53.1472 39.2764 52.8011 37.4201C52.6127 36.1712 50.5807 36.1909 50.357 37.4201V38.8683C50.3563 39.1876 50.2346 39.4936 50.0183 39.7194C49.8021 39.9452 49.509 40.0723 49.2032 40.073H20.7402C20.4344 40.0723 20.1413 39.9452 19.925 39.7194C19.7088 39.4936 19.587 39.1876 19.5864 38.8683V37.4201C19.3627 36.1909 17.3306 36.1712 17.1423 37.4201C16.7961 39.2764 16.8315 43.038 20.2198 43.038H34.8751ZM24.3805 7H47.2724C48.8806 7 50.1969 8.45549 50.1969 10.233V11.777C50.1969 13.9603 47.3713 13.9504 47.3713 11.7918V10.951C47.3713 10.6901 47.272 10.44 47.0954 10.2556C46.9188 10.0711 46.6792 9.96752 46.4294 9.96752H23.4904C23.2406 9.96752 23.001 10.0711 22.8244 10.2556C22.6478 10.44 22.5485 10.6901 22.5485 10.951V11.777C22.5485 13.948 19.8501 13.9332 19.8501 11.8238V10.2355C19.8572 8.45794 21.1711 7 22.7793 7H24.3805Z" fill="#3D73B9"/>
<path fill-rule="evenodd" clip-rule="evenodd" d="M49.6187 24.7539C50.4048 25.1204 51.0744 25.7134 51.549 26.4633C52.0236 27.2132 52.2835 28.0889 52.2983 28.9876C52.2983 31.5888 50.1226 33.7179 47.4642 33.7179H40.007C39.6835 33.728 39.3693 33.6046 39.1322 33.3746C38.8951 33.1445 38.7543 32.8263 38.7402 32.4886V17.6683C38.7415 17.324 38.8732 16.9941 39.1066 16.7509C39.34 16.5077 39.6561 16.3708 39.9858 16.3701H46.1951C47.126 16.3679 48.037 16.6519 48.8144 17.1869C49.5917 17.7218 50.201 18.4839 50.5662 19.3781C50.9313 20.2723 51.0362 21.2589 50.8677 22.215C50.6992 23.171 50.2648 24.054 49.6187 24.7539ZM44.0547 23.5492H46.4211V23.5222C46.9522 23.4351 47.4362 23.1536 47.7865 22.7278C48.1369 22.3021 48.3306 21.7601 48.3331 21.1988C48.3312 20.576 48.0935 19.9793 47.6717 19.539C47.25 19.0986 46.6785 18.8503 46.082 18.8484H41.3139V31.1413H47.3583C47.6698 31.1517 47.9802 31.0966 48.271 30.9792C48.5618 30.8619 48.827 30.6847 49.0509 30.4582C49.2748 30.2317 49.4528 29.9606 49.5744 29.6609C49.696 29.3612 49.7587 29.039 49.7587 28.7135C49.7587 28.388 49.696 28.0658 49.5744 27.7661C49.4528 27.4664 49.2748 27.1952 49.0509 26.9688C48.827 26.7423 48.5618 26.5651 48.271 26.4478C47.9802 26.3304 47.6698 26.2753 47.3583 26.2856H46.4164H44.0547C43.8831 26.2856 43.7131 26.2503 43.5546 26.1818C43.396 26.1132 43.252 26.0127 43.1306 25.886C43.0093 25.7593 42.913 25.6088 42.8473 25.4433C42.7817 25.2777 42.7478 25.1003 42.7478 24.9211C42.7478 24.7419 42.7817 24.5645 42.8473 24.3989C42.913 24.2334 43.0093 24.083 43.1306 23.9562C43.252 23.8295 43.396 23.729 43.5546 23.6605C43.7131 23.5919 43.8831 23.5566 44.0547 23.5566" fill="#1D1D1B"/>
<path d="M37.557 32.2392C37.5859 32.4474 37.5742 32.6595 37.5227 32.8629C37.4711 33.0662 37.3809 33.2566 37.2572 33.4227C37.1336 33.5887 36.9791 33.727 36.8031 33.8293C36.6271 33.9316 36.4331 33.9958 36.2328 34.0179C36.0324 34.0401 35.8299 34.0198 35.6372 33.9584C35.4446 33.8969 35.2658 33.7955 35.1115 33.6602C34.9573 33.5249 34.8308 33.3585 34.7396 33.1709C34.6484 32.9834 34.5944 32.7785 34.5808 32.5687L33.3493 20.7896L29.0144 32.3081V32.3376V32.3622V32.3867V32.4015V32.4236V32.4482C28.9193 32.6219 28.792 32.774 28.64 32.8957L28.6164 32.9153C28.5376 32.9896 28.4507 33.054 28.3574 33.1071L28.3292 33.1219L28.3033 33.1366H28.2868H28.2679H28.2515H28.2326H28.2185H28.202H28.1879H28.1738H28.1549C28.0142 33.1891 27.8664 33.2181 27.717 33.2227H27.6086C27.4407 33.2176 27.2749 33.1819 27.1189 33.1169H27.0977H27.0765H27.0576H27.0435H27.0247H27.0082H26.9964L26.9705 33.1022L26.947 33.0874H26.9329C26.8493 33.0409 26.7704 32.9857 26.6974 32.9227L26.6479 32.876L26.6103 32.8391L26.5208 32.8145L26.4761 32.7629C26.4157 32.6867 26.3628 32.6043 26.3183 32.517V32.5023L26.3042 32.4777L26.29 32.4507V32.4334V32.4138V32.399V32.3769V32.3572V32.3351L21.8751 20.7896L20.6483 32.5687C20.6064 32.9804 20.4097 33.358 20.1012 33.6183C19.7928 33.8786 19.3979 34.0002 19.0036 33.9565C18.6092 33.9129 18.2476 33.7074 17.9983 33.3853C17.7491 33.0633 17.6325 32.651 17.6744 32.2392L19.1201 18.3531C19.155 18.0261 19.2493 17.709 19.398 17.4188C19.5835 17.0563 19.8489 16.7451 20.1724 16.5108C20.4958 16.2765 20.868 16.126 21.2581 16.0715H21.3382C21.4644 16.0617 21.5911 16.0617 21.7173 16.0715C21.8696 16.0779 22.021 16.0993 22.1694 16.1355C22.56 16.2288 22.9228 16.4206 23.2261 16.694C23.5294 16.9674 23.764 17.3142 23.9095 17.704L27.6157 27.4843L31.3149 17.6721C31.4888 17.207 31.7888 16.8049 32.1781 16.5149C32.5674 16.225 33.0292 16.0598 33.507 16.0396C33.6332 16.0298 33.7599 16.0298 33.8861 16.0396H33.9662C34.3562 16.0944 34.7283 16.2451 35.0516 16.4793C35.375 16.7136 35.6406 17.0246 35.8264 17.3869C35.8986 17.5322 35.9592 17.6835 36.0077 17.8393C36.0553 17.9994 36.0876 18.1641 36.1042 18.331L37.557 32.2392Z" fill="#1D1D1B"/>
</svg>
