<svg width="70" height="48" viewBox="0 0 70 48" fill="none" xmlns="http://www.w3.org/2000/svg">
<rect width="70" height="48" rx="4" fill="#F3FBFF"/>
<path d="M30.4727 35.5382L30.9017 32.8132L29.9461 32.791H25.3828L28.5541 12.6827C28.5638 12.622 28.5959 12.5654 28.6426 12.5252C28.6894 12.485 28.7494 12.4629 28.8117 12.4629H36.5061C39.0606 12.4629 40.8234 12.9945 41.7438 14.0436C42.1753 14.5358 42.4501 15.0501 42.5831 15.6162C42.7224 16.2101 42.725 16.9196 42.5887 17.7851L42.5788 17.8482V18.4027L43.0105 18.6472C43.3739 18.84 43.6624 19.0606 43.8839 19.3133C44.2532 19.7341 44.492 20.269 44.5928 20.9031C44.6969 21.5552 44.6625 22.3312 44.492 23.2098C44.295 24.2204 43.9767 25.1006 43.547 25.8208C43.1514 26.4845 42.6478 27.0348 42.0499 27.4615C41.4789 27.8667 40.8005 28.1744 40.0335 28.3713C39.2902 28.5647 38.4429 28.6624 37.5135 28.6624H36.9147C36.4865 28.6624 36.0705 28.8166 35.7441 29.0932C35.4169 29.3753 35.2001 29.7607 35.1337 30.1824L35.0886 30.4278L34.3306 35.2305L34.2962 35.4069C34.2872 35.4629 34.2716 35.4907 34.2487 35.5096C34.2282 35.5266 34.1986 35.5382 34.1698 35.5382H30.4727Z" fill="#253B80"/>
<path d="M43.4161 17.9131C43.3932 18.0599 43.367 18.21 43.3375 18.3642C42.3226 23.574 38.8512 25.3738 34.4173 25.3738H32.1598C31.6177 25.3738 31.1608 25.7675 31.0762 26.3024L29.9203 33.6328L29.5931 35.7105C29.538 36.0616 29.8089 36.3783 30.1631 36.3783H34.1672C34.6414 36.3783 35.044 36.0338 35.1186 35.5662L35.158 35.3627L35.912 30.5786L35.9604 30.3163C36.0341 29.8471 36.4376 29.5025 36.9118 29.5025H37.5106C41.3898 29.5025 44.4268 27.9275 45.3144 23.3698C45.6851 21.4658 45.4932 19.8761 44.512 18.758C44.2152 18.4208 43.8468 18.1411 43.4161 17.9131Z" fill="#179BD7"/>
<path d="M42.3527 17.4882C42.1978 17.4431 42.0377 17.4021 41.8736 17.3652C41.7088 17.3291 41.5397 17.2971 41.3659 17.2692C40.7571 17.1708 40.0903 17.124 39.3757 17.124H33.3449C33.1964 17.124 33.0554 17.1576 32.9291 17.2184C32.6509 17.3521 32.4443 17.6154 32.3942 17.9378L31.1111 26.0638L31.0742 26.3008C31.1588 25.766 31.6157 25.3722 32.1578 25.3722H34.4153C38.8492 25.3722 42.3208 23.5717 43.3355 18.3627C43.3657 18.2085 43.3912 18.0584 43.4141 17.9115C43.1574 17.7754 42.8793 17.6589 42.5799 17.5596C42.5062 17.535 42.4299 17.5112 42.3527 17.4882Z" fill="#222D65"/>
<path d="M32.3981 17.9386C32.4481 17.6162 32.655 17.3529 32.9329 17.22C33.0602 17.1593 33.2005 17.1257 33.3488 17.1257H39.3799C40.0944 17.1257 40.7612 17.1724 41.3698 17.2709C41.5438 17.2988 41.7129 17.3308 41.8777 17.3668C42.0418 17.4038 42.2017 17.4448 42.3568 17.4899C42.4338 17.5129 42.5101 17.5366 42.5847 17.5605C42.8841 17.6597 43.1623 17.777 43.4189 17.9124C43.7209 15.9871 43.4166 14.6762 42.3757 13.4892C41.2281 12.1825 39.1567 11.623 36.5063 11.623H28.8117C28.2702 11.623 27.8086 12.0168 27.7248 12.5524L24.5199 32.8674C24.4567 33.2693 24.7667 33.632 25.1719 33.632H29.9225L31.1152 26.0646L32.3981 17.9386Z" fill="#253B80"/>
</svg>
