<svg width="70" height="48" viewBox="0 0 70 48" fill="none" xmlns="http://www.w3.org/2000/svg">
<rect width="70" height="48" rx="4" fill="#F8F8F8"/>
<path d="M43.1144 22.2873C42.1959 21.4573 41.0869 21.0516 39.8049 21.0516C38.5403 21.0516 37.4313 21.4578 36.5123 22.2873C35.5938 23.0992 35.1268 24.2294 35.1268 25.6772C35.1268 27.125 35.5938 28.2541 36.5123 29.084C37.4308 29.896 38.5403 30.3022 39.8049 30.3022C41.0869 30.3022 42.1959 29.896 43.1144 29.084C44.0504 28.2541 44.5174 27.1244 44.5174 25.6772C44.5174 24.2299 44.0499 23.0992 43.1144 22.2873ZM38.0728 27.5302C37.5884 27.0539 37.3443 26.4356 37.3443 25.6766C37.3443 24.9177 37.5863 24.2999 38.0728 23.8406C38.2984 23.6116 38.5683 23.4309 38.866 23.3096C39.1637 23.1882 39.4829 23.1287 39.8043 23.1348C40.1284 23.1287 40.4504 23.1881 40.751 23.3094C41.0517 23.4306 41.3247 23.6113 41.5538 23.8406C42.0553 24.2999 42.2994 24.9172 42.2994 25.6766C42.2994 26.4361 42.0574 27.0534 41.5538 27.5302C41.0694 27.9889 40.4798 28.2185 39.8043 28.2185C39.4846 28.2236 39.167 28.1654 38.8698 28.0473C38.5727 27.9291 38.3018 27.7534 38.0728 27.5302V27.5302ZM47.794 30.0545V17.9408H45.611V30.0545H47.794ZM54.8399 21.2987V26.1323C54.8399 27.2969 54.2221 28.0692 53.0461 28.0692C51.8501 28.0692 51.2488 27.298 51.2488 26.1323V21.2987H49.0616V26.503C49.0616 28.5192 50.3091 30.3017 53.0461 30.3017H53.0631C55.7832 30.3017 57.0286 28.4796 57.0286 26.503V21.2987H54.8399ZM32.8037 21.2987L30.6207 27.23L28.4377 21.2987H26.1161L29.5997 30.0551H31.6448L35.1278 21.2987H32.8037ZM26.1264 25.4295C26.1264 24.1588 25.7284 23.1172 24.9484 22.2873C24.1684 21.4573 23.1649 21.0516 21.9344 21.0516C20.6699 21.0516 19.5949 21.4934 18.7114 22.3578C17.8443 23.2233 17.4123 24.3174 17.4123 25.6766C17.4123 27.0359 17.8453 28.1485 18.6944 29.013C19.5614 29.8785 20.6009 30.3017 21.8309 30.3017C23.7205 30.3017 25.054 29.4542 25.8669 27.7418L24.2389 26.7882C23.703 27.8648 22.9219 28.3946 21.8654 28.3946C20.5664 28.3946 19.6479 27.5471 19.5089 26.2059H26.1259V25.429L26.1264 25.4295ZM21.8639 22.746C23.0939 22.746 23.9089 23.4519 24.1164 24.582H19.5078C19.8379 23.5405 20.7379 22.746 21.8644 22.746H21.8639ZM17.4118 30.0545L14.4828 24.8297C16.3358 24.1413 17.2543 22.9412 17.2543 21.1932C17.2563 19.057 15.5918 17.6973 12.9413 17.6973H7.76172V30.0545H10.0487V25.0413H11.9898L14.7958 30.0551L17.4118 30.0545ZM12.9413 19.7449C14.2928 19.7449 14.9688 20.2922 14.9688 21.3688C14.9688 22.4453 14.2923 22.9927 12.9413 22.9927H10.0487V19.7449H12.9413ZM60.7295 30.3017C59.3244 30.3017 58.185 29.1401 58.185 27.7068V18.9329H60.368V21.3018H62.2401V23.1023H60.368V27.5636C60.368 27.9838 60.7022 28.3241 61.1151 28.3241H62.2401V30.3017H60.7295Z" fill="black"/>
</svg>
